REM DIRINDEX 1\2\4\8,1\2\4\9,1\2\4\10,1\2\5\11,1\2\5\12,1\2\5\13,1\2\5\14,1\2\5\15,1\3\6\16,1\3\6\17,1\3\6\18,1\3\7\19,1\3\7\20,1\3\7\21,1\3\7\22,1\3\7\23
REM DIRNAME "folder01","folder02","folder03","folder04","folder05","folder06","folder07","folder08","folder09","folder10","folder11","folder12","folder13","folder14","folder15","folder16","folder17","folder18","folder19","folder20","folder21","folder22","folder23"
TITLE ""
FILE "LR_black_phrase_E_A01.mp3" MP3
  TRACK 01 AUDIO
    TITLE "0:"
    INDEX 01 00:00:00
  TRACK 02 AUDIO
    TITLE "16:cjc171_08001"
    INDEX 01 00:00:08
  TRACK 03 AUDIO
    TITLE "0:"
    INDEX 01 00:01:23
  TRACK 04 AUDIO
    TITLE "17:cjc171_08002"
    INDEX 01 00:01:55
  TRACK 05 AUDIO
    TITLE "0:"
    INDEX 01 00:03:54
  TRACK 06 AUDIO
    TITLE "18:cjc171_08003"
    INDEX 01 00:04:37
  TRACK 07 AUDIO
    TITLE "0:"
    INDEX 01 00:06:34
  TRACK 08 AUDIO
    TITLE "16:cjc171_08004"
    INDEX 01 00:07:32
  TRACK 09 AUDIO
    TITLE "0:"
    INDEX 01 00:08:67
  TRACK 10 AUDIO
    TITLE "17:cjc171_08005"
    INDEX 01 00:09:21
  TRACK 11 AUDIO
    TITLE "0:"
    INDEX 01 00:11:53
  TRACK 12 AUDIO
    TITLE "18:cjc171_08006"
    INDEX 01 00:12:33
  TRACK 13 AUDIO
    TITLE "0:"
    INDEX 01 00:14:65
  TRACK 14 AUDIO
    TITLE "16:cjc171_08007"
    INDEX 01 00:15:69
  TRACK 15 AUDIO
    TITLE "0:"
    INDEX 01 00:17:30
  TRACK 16 AUDIO
    TITLE "17:cjc171_08008"
    INDEX 01 00:17:58
  TRACK 17 AUDIO
    TITLE "0:"
    INDEX 01 00:20:44
  TRACK 18 AUDIO
    TITLE "18:cjc171_08009"
    INDEX 01 00:21:26
  TRACK 19 AUDIO
    TITLE "0:"
    INDEX 01 00:24:13
  TRACK 20 AUDIO
    TITLE "16:cjc171_08010"
    INDEX 01 00:25:20
  TRACK 21 AUDIO
    TITLE "0:"
    INDEX 01 00:26:41
  TRACK 22 AUDIO
    TITLE "17:cjc171_08011"
    INDEX 01 00:26:70
  TRACK 23 AUDIO
    TITLE "0:"
    INDEX 01 00:28:60
  TRACK 24 AUDIO
    TITLE "18:cjc171_08012"
    INDEX 01 00:29:37
  TRACK 25 AUDIO
    TITLE "0:"
    INDEX 01 00:31:27
  TRACK 26 AUDIO
    TITLE "16:cjc171_08013"
    INDEX 01 00:32:30
  TRACK 27 AUDIO
    TITLE "0:"
    INDEX 01 00:33:47
  TRACK 28 AUDIO
    TITLE "17:cjc171_08014"
    INDEX 01 00:33:72
  TRACK 29 AUDIO
    TITLE "0:"
    INDEX 01 00:36:14
  TRACK 30 AUDIO
    TITLE "18:cjc171_08015"
    INDEX 01 00:36:65
  TRACK 31 AUDIO
    TITLE "0:"
    INDEX 01 00:39:06
  TRACK 32 AUDIO
    TITLE "16:cjc171_08016"
    INDEX 01 00:40:16
  TRACK 33 AUDIO
    TITLE "0:"
    INDEX 01 00:41:37
  TRACK 34 AUDIO
    TITLE "17:cjc171_08017"
    INDEX 01 00:41:64
  TRACK 35 AUDIO
    TITLE "0:"
    INDEX 01 00:44:21
  TRACK 36 AUDIO
    TITLE "18:cjc171_08018"
    INDEX 01 00:44:74
  TRACK 37 AUDIO
    TITLE "0:"
    INDEX 01 00:47:31
  TRACK 38 AUDIO
    TITLE "16:cjc171_08019"
    INDEX 01 00:48:35
  TRACK 39 AUDIO
    TITLE "0:"
    INDEX 01 00:49:40
  TRACK 40 AUDIO
    TITLE "17:cjc171_08020"
    INDEX 01 00:49:70
  TRACK 41 AUDIO
    TITLE "0:"
    INDEX 01 00:52:17
  TRACK 42 AUDIO
    TITLE "18:cjc171_08021"
    INDEX 01 00:52:72
  TRACK 43 AUDIO
    TITLE "0:"
    INDEX 01 00:55:19
  TRACK 44 AUDIO
    TITLE "16:cjc171_08022"
    INDEX 01 00:56:26
  TRACK 45 AUDIO
    TITLE "0:"
    INDEX 01 00:57:36
  TRACK 46 AUDIO
    TITLE "17:cjc171_08023"
    INDEX 01 00:57:65
  TRACK 47 AUDIO
    TITLE "0:"
    INDEX 01 01:00:32
  TRACK 48 AUDIO
    TITLE "18:cjc171_08024"
    INDEX 01 01:01:14
  TRACK 49 AUDIO
    TITLE "0:"
    INDEX 01 01:03:56
  TRACK 50 AUDIO
    TITLE "16:cjc171_08025"
    INDEX 01 01:04:59
  TRACK 51 AUDIO
    TITLE "0:"
    INDEX 01 01:05:70
  TRACK 52 AUDIO
    TITLE "17:cjc171_08026"
    INDEX 01 01:06:23
  TRACK 53 AUDIO
    TITLE "0:"
    INDEX 01 01:09:23
  TRACK 54 AUDIO
    TITLE "18:cjc171_08027"
    INDEX 01 01:10:03
  TRACK 55 AUDIO
    TITLE "0:"
    INDEX 01 01:13:03
  TRACK 56 AUDIO
    TITLE "16:cjc171_08028"
    INDEX 01 01:14:07
  TRACK 57 AUDIO
    TITLE "0:"
    INDEX 01 01:15:28
  TRACK 58 AUDIO
    TITLE "17:cjc171_08029"
    INDEX 01 01:15:47
  TRACK 59 AUDIO
    TITLE "0:"
    INDEX 01 01:17:40
  TRACK 60 AUDIO
    TITLE "18:cjc171_08030"
    INDEX 01 01:18:16
  TRACK 61 AUDIO
    TITLE "0:"
    INDEX 01 01:20:09
  TRACK 62 AUDIO
    TITLE "16:cjc171_08031"
    INDEX 01 01:21:21
  TRACK 63 AUDIO
    TITLE "0:"
    INDEX 01 01:22:42
  TRACK 64 AUDIO
    TITLE "17:cjc171_08032"
    INDEX 01 01:22:73
  TRACK 65 AUDIO
    TITLE "0:"
    INDEX 01 01:25:12
  TRACK 66 AUDIO
    TITLE "18:cjc171_08033"
    INDEX 01 01:25:67
  TRACK 67 AUDIO
    TITLE "0:"
    INDEX 01 01:28:07
  TRACK 68 AUDIO
    TITLE "16:cjc171_08034"
    INDEX 01 01:29:12
  TRACK 69 AUDIO
    TITLE "0:"
    INDEX 01 01:30:43
  TRACK 70 AUDIO
    TITLE "17:cjc171_08035"
    INDEX 01 01:30:72
  TRACK 71 AUDIO
    TITLE "0:"
    INDEX 01 01:33:65
  TRACK 72 AUDIO
    TITLE "18:cjc171_08036"
    INDEX 01 01:34:43
  TRACK 73 AUDIO
    TITLE "0:"
    INDEX 01 01:37:35
  TRACK 74 AUDIO
    TITLE "16:cjc171_08037"
    INDEX 01 01:38:37
  TRACK 75 AUDIO
    TITLE "0:"
    INDEX 01 01:39:64
  TRACK 76 AUDIO
    TITLE "17:cjc171_08038"
    INDEX 01 01:40:08
  TRACK 77 AUDIO
    TITLE "0:"
    INDEX 01 01:42:15
  TRACK 78 AUDIO
    TITLE "18:cjc171_08039"
    INDEX 01 01:42:64
  TRACK 79 AUDIO
    TITLE "0:"
    INDEX 01 01:44:69
  TRACK 80 AUDIO
    TITLE "16:cjc171_08040"
    INDEX 01 01:46:01
  TRACK 81 AUDIO
    TITLE "0:"
    INDEX 01 01:47:28
  TRACK 82 AUDIO
    TITLE "17:cjc171_08041"
    INDEX 01 01:47:49
  TRACK 83 AUDIO
    TITLE "0:"
    INDEX 01 01:49:74
  TRACK 84 AUDIO
    TITLE "18:cjc171_08042"
    INDEX 01 01:50:48
  TRACK 85 AUDIO
    TITLE "0:"
    INDEX 01 01:52:74
  TRACK 86 AUDIO
    TITLE "16:cjc171_08043"
    INDEX 01 01:54:06
  TRACK 87 AUDIO
    TITLE "0:"
    INDEX 01 01:55:19
  TRACK 88 AUDIO
    TITLE "17:cjc171_08044"
    INDEX 01 01:55:51
  TRACK 89 AUDIO
    TITLE "0:"
    INDEX 01 01:57:58
  TRACK 90 AUDIO
    TITLE "18:cjc171_08045"
    INDEX 01 01:58:37
  TRACK 91 AUDIO
    TITLE "0:"
    INDEX 01 02:00:44
  TRACK 92 AUDIO
    TITLE "16:cjc171_08046"
    INDEX 01 02:01:49
  TRACK 93 AUDIO
    TITLE "0:"
    INDEX 01 02:02:70
  TRACK 94 AUDIO
    TITLE "17:cjc171_08047"
    INDEX 01 02:03:23
  TRACK 95 AUDIO
    TITLE "0:"
    INDEX 01 02:06:06
  TRACK 96 AUDIO
    TITLE "18:cjc171_08048"
    INDEX 01 02:06:62
  TRACK 97 AUDIO
    TITLE "0:"
    INDEX 01 02:09:45
  TRACK 98 AUDIO
    TITLE "16:cjc171_08049"
    INDEX 01 02:10:52
  TRACK 99 AUDIO
    TITLE "0:"
    INDEX 01 02:11:75
  TRACK 100 AUDIO
    TITLE "17:cjc171_08050"
    INDEX 01 02:12:22
  TRACK 101 AUDIO
    TITLE "0:"
    INDEX 01 02:14:11
  TRACK 102 AUDIO
    TITLE "18:cjc171_08051"
    INDEX 01 02:14:56
  TRACK 103 AUDIO
    TITLE "0:"
    INDEX 01 02:16:49
  TRACK 104 AUDIO
    TITLE "16:cjc171_08052"
    INDEX 01 02:17:52
  TRACK 105 AUDIO
    TITLE "0:"
    INDEX 01 02:19:12
  TRACK 106 AUDIO
    TITLE "17:cjc171_08053"
    INDEX 01 02:19:36
  TRACK 107 AUDIO
    TITLE "0:"
    INDEX 01 02:21:48
  TRACK 108 AUDIO
    TITLE "18:cjc171_08054"
    INDEX 01 02:22:24
  TRACK 109 AUDIO
    TITLE "0:"
    INDEX 01 02:24:37
  TRACK 110 AUDIO
    TITLE "16:cjc171_08055"
    INDEX 01 02:25:44
  TRACK 111 AUDIO
    TITLE "0:"
    INDEX 01 02:26:65
  TRACK 112 AUDIO
    TITLE "17:cjc171_08056"
    INDEX 01 02:27:19
  TRACK 113 AUDIO
    TITLE "0:"
    INDEX 01 02:29:18
  TRACK 114 AUDIO
    TITLE "18:cjc171_08057"
    INDEX 01 02:29:73
  TRACK 115 AUDIO
    TITLE "0:"
    INDEX 01 02:31:70
  TRACK 116 AUDIO
    TITLE "16:cjc171_08058"
    INDEX 01 02:32:75
  TRACK 117 AUDIO
    TITLE "0:"
    INDEX 01 02:34:16
  TRACK 118 AUDIO
    TITLE "17:cjc171_08059"
    INDEX 01 02:34:43
  TRACK 119 AUDIO
    TITLE "0:"
    INDEX 01 02:36:54
  TRACK 120 AUDIO
    TITLE "18:cjc171_08060"
    INDEX 01 02:37:33
  TRACK 121 AUDIO
    TITLE "0:"
    INDEX 01 02:39:44
  TRACK 122 AUDIO
    TITLE "16:cjc171_08061"
    INDEX 01 02:40:49
  TRACK 123 AUDIO
    TITLE "0:"
    INDEX 01 02:42:09
  TRACK 124 AUDIO
    TITLE "17:cjc171_08062"
    INDEX 01 02:42:39
  TRACK 125 AUDIO
    TITLE "0:"
    INDEX 01 02:44:45
  TRACK 126 AUDIO
    TITLE "18:cjc171_08063"
    INDEX 01 02:45:25
  TRACK 127 AUDIO
    TITLE "0:"
    INDEX 01 02:47:32
  TRACK 128 AUDIO
    TITLE "16:cjc171_08064"
    INDEX 01 02:48:37
  TRACK 129 AUDIO
    TITLE "0:"
    INDEX 01 02:50:03
  TRACK 130 AUDIO
    TITLE "17:cjc171_08065"
    INDEX 01 02:50:34
  TRACK 131 AUDIO
    TITLE "0:"
    INDEX 01 02:53:50
  TRACK 132 AUDIO
    TITLE "18:cjc171_08066"
    INDEX 01 02:54:32
  TRACK 133 AUDIO
    TITLE "0:"
    INDEX 01 02:57:48
  TRACK 134 AUDIO
    TITLE "16:cjc171_08067"
    INDEX 01 02:58:53
  TRACK 135 AUDIO
    TITLE "0:"
    INDEX 01 02:59:61
  TRACK 136 AUDIO
    TITLE "17:cjc171_08068"
    INDEX 01 03:00:05
  TRACK 137 AUDIO
    TITLE "0:"
    INDEX 01 03:02:16
  TRACK 138 AUDIO
    TITLE "18:cjc171_08069"
    INDEX 01 03:02:63
  TRACK 139 AUDIO
    TITLE "0:"
    INDEX 01 03:04:73
  TRACK 140 AUDIO
    TITLE "16:cjc171_08070"
    INDEX 01 03:05:75
  TRACK 141 AUDIO
    TITLE "0:"
    INDEX 01 03:07:31
  TRACK 142 AUDIO
    TITLE "17:cjc171_08071"
    INDEX 01 03:07:60
  TRACK 143 AUDIO
    TITLE "0:"
    INDEX 01 03:09:53
  TRACK 144 AUDIO
    TITLE "18:cjc171_08072"
    INDEX 01 03:10:45
  TRACK 145 AUDIO
    TITLE "0:"
    INDEX 01 03:12:48
  TRACK 146 AUDIO
    TITLE "16:cjc171_08073"
    INDEX 01 03:13:55
  TRACK 147 AUDIO
    TITLE "0:"
    INDEX 01 03:15:16
  TRACK 148 AUDIO
    TITLE "17:cjc171_08074"
    INDEX 01 03:15:48
  TRACK 149 AUDIO
    TITLE "0:"
    INDEX 01 03:17:74
  TRACK 150 AUDIO
    TITLE "18:cjc171_08075"
    INDEX 01 03:18:52
  TRACK 151 AUDIO
    TITLE "0:"
    INDEX 01 03:21:03
  TRACK 152 AUDIO
    TITLE "16:cjc171_08076"
    INDEX 01 03:22:07
  TRACK 153 AUDIO
    TITLE "0:"
    INDEX 01 03:23:36
  TRACK 154 AUDIO
    TITLE "17:cjc171_08077"
    INDEX 01 03:23:69
  TRACK 155 AUDIO
    TITLE "0:"
    INDEX 01 03:25:52
  TRACK 156 AUDIO
    TITLE "18:cjc171_08078"
    INDEX 01 03:26:34
  TRACK 157 AUDIO
    TITLE "0:"
    INDEX 01 03:28:17
  TRACK 158 AUDIO
    TITLE "16:cjc171_08079"
    INDEX 01 03:29:22
  TRACK 159 AUDIO
    TITLE "0:"
    INDEX 01 03:30:49
  TRACK 160 AUDIO
    TITLE "17:cjc171_08080"
    INDEX 01 03:31:02
  TRACK 161 AUDIO
    TITLE "0:"
    INDEX 01 03:34:14
  TRACK 162 AUDIO
    TITLE "18:cjc171_08081"
    INDEX 01 03:34:67
  TRACK 163 AUDIO
    TITLE "0:"
    INDEX 01 03:38:04
  TRACK 164 AUDIO
    TITLE "16:cjc171_08082"
    INDEX 01 03:39:11
  TRACK 165 AUDIO
    TITLE "0:"
    INDEX 01 03:40:26
  TRACK 166 AUDIO
    TITLE "17:cjc171_08083"
    INDEX 01 03:40:60
  TRACK 167 AUDIO
    TITLE "0:"
    INDEX 01 03:42:64
  TRACK 168 AUDIO
    TITLE "18:cjc171_08084"
    INDEX 01 03:43:42
  TRACK 169 AUDIO
    TITLE "0:"
    INDEX 01 03:45:49
  TRACK 170 AUDIO
    TITLE "16:cjc171_08085"
    INDEX 01 03:46:52
  TRACK 171 AUDIO
    TITLE "0:"
    INDEX 01 03:47:71
  TRACK 172 AUDIO
    TITLE "17:cjc171_08086"
    INDEX 01 03:48:26
  TRACK 173 AUDIO
    TITLE "0:"
    INDEX 01 03:50:36
  TRACK 174 AUDIO
    TITLE "18:cjc171_08087"
    INDEX 01 03:51:16
  TRACK 175 AUDIO
    TITLE "0:"
    INDEX 01 03:53:27
  TRACK 176 AUDIO
    TITLE "16:cjc171_08088"
    INDEX 01 03:54:26
  TRACK 177 AUDIO
    TITLE "0:"
    INDEX 01 03:55:45
  TRACK 178 AUDIO
    TITLE "17:cjc171_08089"
    INDEX 01 03:55:69
  TRACK 179 AUDIO
    TITLE "0:"
    INDEX 01 03:58:14
  TRACK 180 AUDIO
    TITLE "18:cjc171_08090"
    INDEX 01 03:58:67
  TRACK 181 AUDIO
    TITLE "0:"
    INDEX 01 04:01:13
